<?xml version="1.0" encoding="utf-8"?>
<!-- Generator: Adobe Illustrator 21.1.0, SVG Export Plug-In . SVG Version: 6.00 Build 0)  -->
<svg version="1.1" id="Layer_1" xmlns="http://www.w3.org/2000/svg" xmlns:xlink="http://www.w3.org/1999/xlink" x="0px" y="0px"
	 viewBox="0 0 333.5 132.3" style="enable-background:new 0 0 333.5 132.3;" xml:space="preserve">
<style type="text/css">
	.st0{fill:none;}
</style>
<g>
	<g>
		<g>
			<g>
				<path class="st0" d="M79.3,89.4C62,100.6,44.1,99.9,44.1,99.9s-0.5-2.3-0.3-6.2c0.2-3.9,2.4-2.8,3.9-5.9
					c0.6-1.1,1.1-1.9,1.9-4.6c0-0.1-1-19-1.3-27c-0.1-4.3-0.9-11.5-1.9-18.6c-0.6-4.2-1.8-7.5-2.4-11.4c-0.8-5.7-1.8-12.1-1.8-12.1
					c-0.7,1.8-1.7,8.6-2.8,16.3c-0.5,3.7-1,7.6-1.4,11.2c-1,7.7-3.4,28.2-3.8,29.3c-0.5,1.7-0.6-0.4-0.6-0.4s1.5-21.6,1.9-31
					c0.2-4.6,0.6-9.7,1.2-14.6c0.4-3.7,1-7.2,1.7-10.3c0,0,2.5-7.5,3.3-7.6c0.8-0.1,3.6,4.7,4.6,9c2.2,9.7,3.4,11,5.1,21.2
					c1.6,9.7,3,17.9,3.2,19.2c0.7,4.8,0.3,19.9-0.9,25.9c-0.3,1.6-0.4,2.2-1.4,3.3C49.8,88,48.1,91.1,48,93c0,2-0.3,1.9,0.1,3.1
					c0,0,3.3,4.9,22.3-6.3c0,0,5.9-3.1,5.9-10l0.1-69.3c0,0-18.8-6.4-33.3-6.4c-14.5,0-32.6,6.3-32.6,6.3l-0.1,69
					c0,4.2,0.6,12.2,6.7,15c0,0-16.2-5.6-16.1-15.1L1.1,4.5c0,0,24.7-4.5,42.1-4.5c17.5,0,42.6,4.6,42.6,4.6s-0.1,68.5-0.1,74.9
					C85.7,86,79.3,89.4,79.3,89.4z"/>
			</g>
		</g>
		<g>
			<path class="st0" d="M313.9,31.9c-1.7,1-4,1.4-7,1.4c-2.9,0-5.2-0.9-6.8-2.7c-1.6-1.8-2.4-4.3-2.4-7.4c0-3.2,0.8-5.8,2.5-7.7
				c1.6-1.8,3.7-2.7,6.3-2.7c1.2,0,2.2,0.1,3,0.4l0-8.1l4.5,0L313.9,31.9z M309.4,30l0-14.4c-0.6-0.2-1.3-0.3-2-0.3
				c-3.5,0-5.3,2.5-5.3,7.6c0,5,1.6,7.5,4.9,7.5C308.1,30.4,308.9,30.3,309.4,30z"/>
			<path class="st0" d="M334.5,22.9l-12.2,1.7c0.4,3.7,2.2,5.6,5.4,5.6c1.9,0,3.6-0.4,5-1.1l1.1,2.8c-1.7,0.9-3.9,1.4-6.6,1.4
				c-2.9,0-5.1-0.9-6.8-2.7c-1.6-1.8-2.5-4.4-2.5-7.7c0-3.2,0.8-5.7,2.3-7.6c1.5-1.8,3.6-2.7,6.2-2.7c2.7,0,4.7,0.9,6.1,2.6
				C334,17,334.6,19.6,334.5,22.9z M330.3,21.1c0-3.8-1.3-5.7-3.9-5.7c-1.4,0-2.4,0.5-3.2,1.7c-0.8,1.2-1.2,3-1.2,5.2L330.3,21.1z"
				/>
		</g>
		<g>
			<path class="st0" d="M107.4,85.8l-7.1,0l0.1-43.8l7.1,0L107.4,85.8z"/>
			<path class="st0" d="M140.1,70.2c0,4.8-1.1,8.7-3.2,11.5c-2.3,3.1-5.6,4.6-9.8,4.6c-4.2,0-7.5-1.6-9.8-4.7
				c-2.1-2.9-3.2-6.7-3.2-11.5c0-4.9,1.1-8.7,3.2-11.6c2.3-3.1,5.6-4.6,9.8-4.6c4.3,0,7.5,1.6,9.8,4.7
				C139,61.5,140.1,65.4,140.1,70.2z M133.1,70.2c0-7.8-2-11.7-5.9-11.7c-4,0-6,3.9-6,11.7c0,7.6,2,11.4,5.9,11.4
				C131.1,81.6,133,77.8,133.1,70.2z"/>
			<path class="st0" d="M164.3,76.9c0,2.6-1,4.9-3.1,6.7c-2.1,1.9-4.7,2.8-8.1,2.8c-3.6,0-6.4-0.8-8.6-2.3l1.9-4.5
				c1.5,1.2,3.5,1.8,5.9,1.8c1.4,0,2.6-0.4,3.5-1.2c0.9-0.8,1.3-1.9,1.3-3.2c0-1.3-0.3-2.3-1-3.1c-0.7-0.8-1.9-1.4-3.5-2.1
				c-4.8-1.8-7.1-4.8-7.1-8.8c0-2.6,0.9-4.7,2.8-6.4c1.8-1.7,4.2-2.6,7.2-2.6c3.2,0,5.9,0.7,8.1,2.2l-1.7,4.1
				c-1.4-1.2-3.1-1.8-5-1.8c-1.4,0-2.5,0.4-3.3,1.2c-0.8,0.8-1.2,1.8-1.2,2.9c0,2,1.5,3.7,4.6,4.9C161.9,69.7,164.3,72.8,164.3,76.9
				z"/>
			<path class="st0" d="M216.5,86l-8.3,0L205,74.8l-14,0l-3.5,11.1l-7.2,0l14.5-43.4l7.6,0L216.5,86z M203.8,70.1l-4.4-15.3
				c-0.6-2.1-1-3.9-1.1-5.2l-0.1,0c-0.2,1.1-0.6,2.9-1.2,5.2l-4.7,15.3L203.8,70.1z"/>
			<path class="st0" d="M245.6,86l-7.1,0l0-22.2c0-3.5-1.9-5.2-5.6-5.2c-1.8,0-3.4,0.3-4.9,0.9l0,26.5l-7.1,0l0.1-29.6
				c3.2-1.5,7.3-2.2,12.2-2.2c4.4,0,7.6,1,9.7,2.9c1.8,1.6,2.7,3.9,2.7,6.7L245.6,86z"/>
			<path class="st0" d="M277.6,84.4c-2.7,1.5-6.4,2.2-10.9,2.2c-4.6,0-8.2-1.4-10.7-4.2c-2.5-2.8-3.8-6.7-3.8-11.7c0-5,1.3-9,3.9-12
				c2.5-2.9,5.8-4.3,9.9-4.3c1.8,0,3.4,0.2,4.7,0.6l0-12.7l7.1,0L277.6,84.4z M270.5,81.4l0-22.5c-0.9-0.3-2-0.4-3.1-0.4
				c-5.5,0-8.2,3.9-8.3,11.9c0,7.8,2.6,11.7,7.7,11.7C268.5,82.1,269.7,81.9,270.5,81.4z"/>
			<path class="st0" d="M309.8,70.3l-19.2,2.7c0.6,5.8,3.4,8.7,8.5,8.7c3,0,5.6-0.6,7.9-1.7l1.7,4.5c-2.7,1.5-6.1,2.2-10.3,2.2
				c-4.5,0-8-1.4-10.6-4.3c-2.6-2.8-3.9-6.8-3.9-12.1c0-5.1,1.2-9,3.6-11.8c2.4-2.8,5.6-4.3,9.8-4.2c4.2,0,7.3,1.4,9.5,4.1
				C309,61.1,310,65.1,309.8,70.3z M303.2,67.5c0-5.9-2-8.9-6.1-8.9c-2.2,0-3.8,0.9-5,2.6c-1.3,1.9-1.9,4.6-1.8,8.2L303.2,67.5z"/>
			<path class="st0" d="M334.1,77.2c0,2.6-1,4.9-3.1,6.7c-2.1,1.9-4.7,2.8-8.1,2.8c-3.6,0-6.4-0.8-8.6-2.3l1.9-4.5
				c1.5,1.2,3.5,1.8,5.9,1.8c1.4,0,2.6-0.4,3.5-1.2c0.9-0.8,1.3-1.9,1.3-3.2c0-1.3-0.3-2.3-1-3.1c-0.7-0.8-1.9-1.4-3.5-2.1
				c-4.8-1.8-7.1-4.8-7.1-8.8c0-2.6,0.9-4.7,2.8-6.4c1.8-1.7,4.2-2.6,7.2-2.6c3.2,0,5.9,0.7,8.1,2.2l-1.7,4.1
				c-1.4-1.2-3.1-1.8-5-1.8c-1.4,0-2.5,0.4-3.3,1.2S322,61.9,322,63c0,2,1.5,3.7,4.6,4.9C331.6,70,334.1,73.1,334.1,77.2z"/>
		</g>
		<g>
			<path class="st0" d="M137.8,32.7l-4.5,0l0-14.1c0-2.2-1.2-3.3-3.6-3.3c-1.1,0-2.2,0.2-3.1,0.5l0,16.9l-4.5,0l0-18.9
				c2-1,4.6-1.4,7.8-1.4c2.8,0,4.8,0.6,6.2,1.9c1.2,1,1.7,2.5,1.7,4.3L137.8,32.7z"/>
			<path class="st0" d="M147.5,7.1c0,0.6-0.2,1.1-0.7,1.6c-0.5,0.4-1.1,0.6-1.8,0.6c-0.7,0-1.3-0.2-1.8-0.7c-0.5-0.4-0.7-1-0.7-1.6
				c0-0.6,0.2-1.1,0.7-1.6c0.5-0.4,1.1-0.7,1.8-0.7c0.7,0,1.3,0.2,1.8,0.6C147.3,5.9,147.5,6.5,147.5,7.1z M147.2,32.7l-4.5,0l0-20
				l4.5,0L147.2,32.7z"/>
			<path class="st0" d="M167.8,12.8l-6.4,19.9l-4.3,0l-6.5-20l4.8,0l3.5,12.9c0.3,1,0.4,1.9,0.5,2.7l0.1,0c0.1-0.7,0.3-1.6,0.5-2.7
				l3.6-12.9L167.8,12.8z"/>
			<path class="st0" d="M186.7,22.7l-12.2,1.8c0.4,3.7,2.2,5.5,5.4,5.6c1.9,0,3.6-0.4,5-1.1l1.1,2.8c-1.7,0.9-3.9,1.4-6.6,1.4
				c-2.9,0-5.1-0.9-6.8-2.7c-1.7-1.8-2.5-4.4-2.5-7.7c0-3.2,0.8-5.8,2.3-7.6c1.5-1.8,3.6-2.7,6.2-2.7c2.7,0,4.7,0.9,6.1,2.6
				C186.2,16.8,186.8,19.4,186.7,22.7z M182.5,20.9c0-3.8-1.3-5.7-3.9-5.7c-1.4,0-2.4,0.6-3.2,1.7c-0.8,1.2-1.2,3-1.2,5.3
				L182.5,20.9z"/>
			<path class="st0" d="M200.4,12.5l-0.9,3.3c-0.7-0.2-1.4-0.3-2.1-0.3c-0.9,0-1.6,0.2-2.2,0.5l0,16.8l-4.5,0l0-18.9
				C193,12.9,196.2,12.4,200.4,12.5z"/>
			<path class="st0" d="M214.8,27.1c0,1.7-0.7,3.1-2,4.3c-1.3,1.2-3,1.8-5.1,1.8c-2.3,0-4.1-0.5-5.5-1.5l1.2-2.9
				c1,0.8,2.2,1.2,3.7,1.2c0.9,0,1.7-0.3,2.2-0.8c0.6-0.5,0.9-1.2,0.9-2c0-0.8-0.2-1.5-0.7-2c-0.4-0.5-1.2-0.9-2.3-1.3
				c-3-1.2-4.5-3-4.5-5.6c0-1.6,0.6-3,1.8-4.1c1.2-1.1,2.7-1.7,4.6-1.7c2,0,3.7,0.5,5.2,1.4l-1.1,2.6c-0.9-0.7-2-1.1-3.2-1.1
				c-0.9,0-1.6,0.3-2.1,0.8c-0.5,0.5-0.8,1.1-0.8,1.9c0,1.3,1,2.4,3,3.2C213.2,22.5,214.8,24.5,214.8,27.1z"/>
			<path class="st0" d="M223.7,7.2c0,0.6-0.2,1.1-0.7,1.6c-0.5,0.4-1.1,0.6-1.8,0.6c-0.7,0-1.3-0.2-1.8-0.7c-0.5-0.4-0.7-1-0.7-1.6
				c0-0.6,0.2-1.1,0.7-1.6c0.5-0.4,1.1-0.7,1.8-0.7c0.7,0,1.3,0.2,1.8,0.6C223.4,6.1,223.7,6.6,223.7,7.2z M223.4,32.9l-4.5,0l0-20
				l4.5,0L223.4,32.9z"/>
			<path class="st0" d="M243.9,31.8c-1.7,1-4,1.4-7,1.4c-2.9,0-5.2-0.9-6.8-2.7c-1.6-1.8-2.4-4.3-2.4-7.4c0-3.2,0.8-5.8,2.5-7.7
				c1.6-1.8,3.7-2.7,6.3-2.7c1.2,0,2.2,0.1,3,0.4l0-8.1l4.5,0L243.9,31.8z M239.4,29.9l0-14.4c-0.6-0.2-1.3-0.3-2-0.3
				c-3.5,0-5.3,2.5-5.3,7.6c0,5,1.6,7.5,4.9,7.5C238.1,30.4,238.9,30.2,239.4,29.9z"/>
			<path class="st0" d="M263.1,31.9c-1.8,1-4.2,1.4-7.2,1.4c-5.4,0-8.1-2-8.1-6.1c0-2.4,1.1-4.2,3.3-5.4c1.7-0.9,4.3-1.6,7.8-1.9
				l0-1.1c0-2.2-1.3-3.3-4-3.3c-1.7,0-3.3,0.4-5,1.2l-1-2.6c2.1-1,4.4-1.5,6.8-1.5c4.9,0,7.4,2.3,7.3,6.9L263.1,31.9z M258.9,30.2
				l0-8.2c-2.4,0.3-4,0.7-5,1.4c-1.2,0.8-1.9,2-1.9,3.7c0,2.5,1.4,3.7,4.2,3.7C257.2,30.8,258.1,30.6,258.9,30.2z"/>
			<path class="st0" d="M283.4,31.9c-1.7,1-4,1.4-7,1.4c-2.9,0-5.2-0.9-6.8-2.7c-1.6-1.8-2.4-4.3-2.4-7.4c0-3.2,0.8-5.8,2.5-7.7
				c1.6-1.8,3.7-2.7,6.3-2.7c1.2,0,2.2,0.1,3,0.4l0-8.1l4.5,0L283.4,31.9z M278.9,30l0-14.4c-0.6-0.2-1.3-0.3-2-0.3
				c-3.5,0-5.3,2.5-5.3,7.6c0,5,1.6,7.5,4.9,7.5C277.7,30.4,278.4,30.3,278.9,30z"/>
		</g>
		<path class="st0" d="M100.4,4.9l4.8,0l0,21.4c0,2.4,1.3,3.5,3.8,3.5c1.2,0,2.3-0.2,3.3-0.6l0-24.4l4.8,0l0,26.5
			c-2.2,1-4.9,1.5-8.3,1.5c-3,0-5.2-0.7-6.6-2c-1.2-1.1-1.8-2.6-1.8-4.5L100.4,4.9z"/>
	</g>
	<g>
		<path class="st0" d="M9.8,112.3l-5.2,0l0,5.2l4.6,0l0,2.1l-4.6,0l0,7.8l-3.2,0l0-17.2l8.4,0L9.8,112.3z"/>
		<path class="st0" d="M20.8,126.8c-1.1,0.6-2.6,0.9-4.5,0.9c-3.4,0-5.1-1.3-5.1-3.8c0-1.6,0.8-2.8,2.4-3.6c1-0.5,2.5-0.8,4.5-1
			l0-0.7c0-1.4-0.8-2-2.5-2.1c-1,0-2.1,0.2-3.1,0.8l-0.6-1.6c1.3-0.6,2.7-0.9,4.3-0.9c3.1,0,4.6,1.4,4.6,4.3L20.8,126.8z
			 M18.1,125.8l0-5.1c-1.4,0.2-2.3,0.4-2.9,0.7c-0.9,0.5-1.4,1.3-1.4,2.4c0,1.5,0.9,2.3,2.6,2.3C17.1,126.1,17.7,126,18.1,125.8z"/>
		<path class="st0" d="M31.1,126.9c-0.6,0.6-1.6,0.8-2.9,0.8c-1.7,0-2.9-0.7-3.8-2.1c-0.7-1.2-1.1-2.6-1.1-4.4
			c0-1.7,0.4-3.2,1.1-4.3c0.9-1.4,2.1-2,3.8-2c1.2,0,2.2,0.3,2.9,0.9l-0.6,1.6c-0.4-0.3-1-0.5-1.7-0.5c-1.8,0-2.7,1.5-2.7,4.4
			c0,1.1,0.2,2.1,0.5,2.9c0.5,1.1,1.2,1.6,2.2,1.6c0.7,0,1.2-0.2,1.7-0.5L31.1,126.9z"/>
		<path class="st0" d="M42.9,126.8c-1.2,0.7-2.8,1-4.8,1c-3.2,0-4.8-1.4-4.8-4.2l0-8.5l2.8,0l0,8.6c0,1.4,0.7,2.1,2.1,2.1
			c0.8,0,1.4-0.1,1.8-0.4l0-10.3l2.8,0L42.9,126.8z"/>
		<path class="st0" d="M48.8,127.5l-2.8,0l0-17.4l2.8,0L48.8,127.5z"/>
		<path class="st0" d="M57.4,127.4c-0.4,0.2-0.8,0.3-1.4,0.3c-1.1,0-1.9-0.3-2.5-0.9c-0.6-0.6-0.9-1.4-0.9-2.5l0-7.4l-1.4,0l0-1.8
			l1.4,0l0-4.1l2.8-0.8l0,4.9l2,0l0,1.8l-2,0l0,7.2c0,1.1,0.4,1.6,1.3,1.6c0.2,0,0.4,0,0.7-0.1L57.4,127.4z"/>
		<path class="st0" d="M68.7,126.9c-1.1,0.6-2.6,0.9-4.5,0.9c-3.4,0-5.1-1.3-5.1-3.8c0-1.6,0.8-2.8,2.4-3.6c1-0.5,2.5-0.8,4.5-1
			l0-0.7c0-1.4-0.8-2-2.5-2.1c-1,0-2.1,0.2-3.1,0.8l-0.6-1.6c1.3-0.6,2.7-0.9,4.3-0.9c3.1,0,4.6,1.4,4.6,4.3L68.7,126.9z
			 M66.1,125.9l0-5.1c-1.4,0.2-2.3,0.4-2.9,0.7c-0.9,0.5-1.4,1.3-1.4,2.4c0,1.5,0.9,2.3,2.6,2.3C65.1,126.2,65.7,126.1,66.1,125.9z"
			/>
		<path class="st0" d="M81.3,126.8c-1.1,0.6-2.5,0.9-4.3,0.9c-1.9,0-3.3-0.6-4.3-1.8c-0.9-1.1-1.4-2.6-1.4-4.5
			c0-1.8,0.4-3.3,1.3-4.5c1-1.3,2.3-2,4.1-2c0.7,0,1.3,0.1,1.9,0.2l0-5.1l2.8,0L81.3,126.8z M78.4,125.7l0-8.9
			c-0.4-0.1-0.8-0.2-1.2-0.2c-2.2,0-3.3,1.6-3.3,4.7c0,3.1,1,4.7,3,4.7C77.7,125.9,78.2,125.8,78.4,125.7z"/>
		<path class="st0" d="M100.1,126.9c-1.1,0.6-2.5,0.9-4.3,0.9c-1.9,0-3.3-0.6-4.3-1.8c-1-1.1-1.4-2.6-1.4-4.5c0-1.8,0.4-3.3,1.3-4.5
			c1-1.3,2.3-2,4.1-2c0.7,0,1.3,0.1,1.9,0.2l0-5.1l2.8,0L100.1,126.9z M97.3,125.7l0-8.9c-0.4-0.1-0.8-0.2-1.2-0.2
			c-2.2,0-3.3,1.6-3.3,4.7c0,3.1,1,4.7,3,4.7C96.6,126,97,125.9,97.3,125.7z"/>
		<path class="st0" d="M113,121.4l-7.6,1.1c0.2,2.3,1.3,3.5,3.4,3.5c1.2,0,2.2-0.2,3.1-0.7l0.7,1.8c-1.1,0.6-2.4,0.9-4.1,0.9
			c-1.9,0-3.4-0.6-4.4-1.8c-0.9-1.1-1.4-2.7-1.4-4.6c0-1.9,0.4-3.3,1.2-4.5c0.9-1.3,2.3-1.9,4.1-1.9c1.8,0,3.2,0.6,4,1.9
			C112.8,118,113.1,119.5,113,121.4z M110.4,120.3c0-2.4-0.8-3.5-2.4-3.5c-1,0-1.8,0.5-2.2,1.5c-0.3,0.7-0.5,1.7-0.5,2.8
			L110.4,120.3z"/>
		<path class="st0" d="M134.8,127.7l-3.3,0l-1.3-4.4l-5.5,0l-1.4,4.4l-2.9,0l5.7-17.2l3,0L134.8,127.7z M129.7,121.4l-1.8-6.1
			c-0.3-0.9-0.4-1.6-0.5-2.1l0,0c-0.1,0.7-0.3,1.4-0.5,2.1l-1.9,6L129.7,121.4z"/>
		<path class="st0" d="M143.4,115.1l-0.6,2c-0.4-0.1-0.8-0.2-1.3-0.2c-0.5,0-1,0.1-1.3,0.3l0,10.5l-2.8,0l0-11.7
			C138.8,115.3,140.8,115,143.4,115.1z"/>
		<path class="st0" d="M150.8,127.6c-0.4,0.2-0.8,0.3-1.4,0.3c-1.1,0-1.9-0.3-2.5-0.9c-0.6-0.6-0.9-1.4-0.9-2.5l0-7.4l-1.4,0l0-1.8
			l1.4,0l0-4.1l2.8-0.8l0,4.9l2,0l0,1.8l-2,0l0,7.2c0,1.1,0.4,1.6,1.3,1.6c0.2,0,0.4,0,0.7-0.1L150.8,127.6z"/>
		<path class="st0" d="M163,121.5l-7.6,1.1c0.2,2.3,1.3,3.5,3.4,3.5c1.2,0,2.2-0.2,3.1-0.7l0.7,1.8c-1.1,0.6-2.4,0.9-4.1,0.9
			c-1.9,0-3.4-0.6-4.4-1.8c-0.9-1.1-1.4-2.7-1.4-4.6c0-1.9,0.4-3.3,1.2-4.5c0.9-1.3,2.3-1.9,4.1-1.9c1.8,0,3.2,0.6,4,1.9
			C162.7,118.1,163,119.6,163,121.5z M160.3,120.4c0-2.4-0.8-3.5-2.4-3.5c-1,0-1.8,0.5-2.2,1.5c-0.3,0.7-0.5,1.7-0.5,2.8
			L160.3,120.4z"/>
		<path class="st0" d="M172.6,124.2c0,1.2-0.5,2.1-1.4,2.8c-0.8,0.6-1.9,1-3.1,1c-1.4,0-2.6-0.3-3.4-0.9l0.7-1.8
			c0.6,0.5,1.4,0.7,2.3,0.7c0.5,0,1-0.2,1.4-0.5c0.4-0.3,0.6-0.7,0.6-1.3c0-0.9-0.6-1.6-1.8-2.1c-1.9-0.7-2.8-1.9-2.8-3.5
			c0-1.1,0.4-1.9,1.2-2.6c0.7-0.6,1.7-1,2.8-1c1.3,0,2.3,0.3,3.2,0.9l-0.7,1.6c-0.6-0.5-1.2-0.7-2-0.7c-0.5,0-0.9,0.1-1.3,0.4
			c-0.3,0.3-0.5,0.7-0.5,1.2c0,0.8,0.6,1.5,1.8,2C171.6,121.3,172.6,122.6,172.6,124.2z"/>
		<path class="st0" d="M191,115.4l-5.7,17.3l-3,0l2-4.9l-4.1-12.4l3,0l2.1,8c0.2,0.6,0.2,1.2,0.2,1.8l0,0c0-0.3,0.1-0.9,0.3-1.8
			l2.3-8L191,115.4z"/>
		<path class="st0" d="M210.6,127.8l-3.2,0l0-7.8l-5.4,0l0,7.8l-3.2,0l0-17.3l3.2,0l0,7.4l5.4,0l0-7.4l3.2,0L210.6,127.8z"/>
		<path class="st0" d="M222.8,127.1c-1.2,0.7-2.8,1-4.8,1c-3.2,0-4.8-1.4-4.8-4.2l0-8.5l2.8,0l0,8.6c0,1.4,0.7,2.1,2.1,2.1
			c0.8,0,1.4-0.1,1.8-0.4l0-10.3l2.8,0L222.8,127.1z"/>
		<path class="st0" d="M242.6,127.9l-2.8,0l0-8.8c0-1.3-0.7-2-2.1-2c-0.8,0-1.5,0.3-2.1,0.8l0,10l-2.8,0l0-8.9c0-1.3-0.8-2-2.3-2
			c-0.7,0-1.3,0.1-1.8,0.3l0,10.5l-2.8,0l0-11.7c1.2-0.6,2.8-0.9,4.6-0.9c1.7,0,3,0.5,3.9,1.4c1-0.9,2.3-1.4,4-1.4
			c1.2,0,2.2,0.3,3,1c0.8,0.7,1.2,1.6,1.2,2.8L242.6,127.9z"/>
		<path class="st0" d="M254.5,127.2c-1.1,0.6-2.6,0.9-4.5,0.9c-3.4,0-5.1-1.3-5.1-3.8c0-1.6,0.8-2.8,2.4-3.6c1-0.5,2.5-0.8,4.5-1
			l0-0.7c0-1.4-0.8-2-2.5-2.1c-1,0-2.1,0.2-3.1,0.8l-0.6-1.6c1.3-0.6,2.7-0.9,4.3-0.9c3.1,0,4.6,1.4,4.6,4.3L254.5,127.2z
			 M251.9,126.2l0-5.1c-1.4,0.2-2.3,0.4-2.9,0.7c-0.9,0.5-1.4,1.3-1.4,2.4c0,1.5,0.9,2.3,2.6,2.3
			C250.9,126.6,251.4,126.5,251.9,126.2z"/>
		<path class="st0" d="M267.3,127.9l-2.8,0l0-8.8c0-1.4-0.7-2.1-2.2-2.1c-0.7,0-1.3,0.1-1.9,0.3l0,10.5l-2.8,0l0-11.7
			c1.3-0.6,2.9-0.9,4.9-0.9c1.4,0,2.5,0.3,3.4,0.8c1,0.7,1.5,1.7,1.5,3L267.3,127.9z"/>
		<path class="st0" d="M273.3,112c0,0.4-0.2,0.7-0.5,1c-0.3,0.3-0.7,0.4-1.1,0.4c-0.4,0-0.8-0.1-1.1-0.4c-0.3-0.3-0.5-0.6-0.5-1
			c0-0.4,0.2-0.7,0.5-1c0.3-0.3,0.7-0.4,1.1-0.4c0.4,0,0.8,0.1,1.1,0.4C273.2,111.3,273.3,111.6,273.3,112z M273.1,127.9l-2.8,0
			l0-12.4l2.8,0L273.1,127.9z"/>
		<path class="st0" d="M285.8,127.2c-1.1,0.6-2.5,0.9-4.3,0.9c-1.9,0-3.3-0.6-4.3-1.8c-0.9-1.1-1.4-2.6-1.4-4.5
			c0-1.8,0.4-3.3,1.3-4.5c1-1.3,2.3-2,4.1-2c0.7,0,1.3,0.1,1.9,0.2l0-5.1l2.8,0L285.8,127.2z M283,126l0-8.9
			c-0.4-0.1-0.8-0.2-1.2-0.2c-2.2,0-3.3,1.6-3.3,4.7c0,3.1,1,4.7,3,4.7C282.2,126.3,282.7,126.2,283,126z"/>
		<path class="st0" d="M297.8,127.3c-1.1,0.6-2.6,0.9-4.5,0.9c-3.4,0-5.1-1.3-5.1-3.8c0-1.6,0.8-2.8,2.4-3.6c1-0.5,2.5-0.8,4.5-1
			l0-0.7c0-1.4-0.8-2-2.5-2.1c-1,0-2.1,0.2-3.1,0.8l-0.6-1.6c1.3-0.6,2.7-0.9,4.3-0.9c3.1,0,4.6,1.4,4.6,4.3L297.8,127.3z
			 M295.2,126.3l0-5.1c-1.4,0.2-2.3,0.4-2.9,0.7c-0.9,0.5-1.4,1.3-1.4,2.4c0,1.5,0.9,2.3,2.6,2.3
			C294.2,126.7,294.7,126.5,295.2,126.3z"/>
		<path class="st0" d="M310.4,127.3c-1.1,0.6-2.5,0.9-4.3,0.9c-1.9,0-3.3-0.6-4.3-1.8c-0.9-1.1-1.4-2.6-1.4-4.5
			c0-1.8,0.4-3.3,1.3-4.5c1-1.3,2.3-2,4.1-2c0.7,0,1.3,0.1,1.9,0.2l0-5.1l2.8,0L310.4,127.3z M307.5,126.1l0-8.9
			c-0.4-0.1-0.8-0.2-1.2-0.2c-2.2,0-3.3,1.6-3.3,4.7c0,3.1,1,4.7,3,4.7C306.8,126.4,307.2,126.3,307.5,126.1z"/>
		<path class="st0" d="M323.2,121.8l-7.6,1.1c0.2,2.3,1.3,3.5,3.4,3.5c1.2,0,2.2-0.2,3.1-0.7l0.7,1.8c-1.1,0.6-2.4,0.9-4.1,0.9
			c-1.9,0-3.4-0.6-4.4-1.8c-0.9-1.1-1.4-2.7-1.4-4.6c0-1.9,0.4-3.3,1.2-4.5c0.9-1.3,2.3-1.9,4.1-1.9c1.8,0,3.2,0.6,4,1.9
			C323,118.4,323.3,119.9,323.2,121.8z M320.6,120.7c0-2.4-0.8-3.5-2.4-3.5c-1,0-1.8,0.5-2.2,1.5c-0.3,0.7-0.5,1.7-0.5,2.8
			L320.6,120.7z"/>
		<path class="st0" d="M332.9,124.5c0,1.2-0.5,2.1-1.4,2.8c-0.8,0.6-1.9,1-3.1,1c-1.4,0-2.6-0.3-3.4-0.9l0.7-1.8
			c0.6,0.5,1.4,0.7,2.3,0.7c0.5,0,1-0.2,1.4-0.5c0.4-0.3,0.6-0.7,0.6-1.3c0-0.9-0.6-1.6-1.8-2.1c-1.9-0.7-2.8-1.9-2.8-3.5
			c0-1.1,0.4-1.9,1.2-2.6c0.7-0.6,1.7-1,2.8-1c1.3,0,2.3,0.3,3.2,0.9l-0.7,1.6c-0.6-0.5-1.2-0.7-2-0.7c-0.5,0-0.9,0.1-1.3,0.4
			c-0.3,0.3-0.5,0.7-0.5,1.2c0,0.8,0.6,1.5,1.8,2C331.9,121.6,332.9,122.9,332.9,124.5z"/>
	</g>
</g>
</svg>
