<?xml version="1.0" encoding="utf-8"?>
<!-- Generator: Adobe Illustrator 21.1.0, SVG Export Plug-In . SVG Version: 6.00 Build 0)  -->
<svg version="1.1" xmlns="http://www.w3.org/2000/svg" xmlns:xlink="http://www.w3.org/1999/xlink" x="0px" y="0px"
	 viewBox="0 0 1754.6 460.1" style="enable-background:new 0 0 1754.6 460.1;" xml:space="preserve">
<style type="text/css">
	.st0{fill:#FFFFFF;}
	.st1{fill:none;}
</style>
<g id="banco_de_archivos">
</g>
<g id="C">
	<g>
		<path class="st0" d="M1624.1,121.5c-24.1-15.6-60.5-1.1-60.5,32.3c0,35,38.5,49,61.9,31.3l16,18.3c-11.2,9.2-25.6,14.9-41.2,14.9
			c-35.5,0-64.4-28.9-64.4-64.5c0-35.5,28.9-64.5,64.4-64.5c14.9,0,28.7,5.2,39.7,13.7L1624.1,121.5z"/>
	</g>
</g>
<g id="A_1_">
	<g>
		<path class="st0" d="M1259.2,192.6h-51.5l-11.7,23.1h-27.9l63.3-124.5h7.3l58.7,124.5H1270L1259.2,192.6z M1247.5,167.7l-13-27.7
			l-14,27.7H1247.5z"/>
	</g>
</g>
<g id="D">
	<g>
		<path class="st0" d="M863.7,91.2c8.3,0,16.5,1.6,24.1,4.8c7.5,3.2,14,7.6,19.7,13.3c5.9,5.9,10.3,12.4,13.3,19.9
			c3.4,7.6,5,15.8,5,24.2c0,8.5-1.6,16.7-5,24.3c-3,7.5-7.5,14-13.3,19.7c-5.7,5.7-12.2,10.3-19.7,13.3c-7.6,3.4-15.8,5-24.1,5h-25
			v-0.2h-10.1V91.2H863.7z M863.7,190.8c20.6,0,37.3-16.9,37.3-37.5c0-20.6-16.7-37.3-37.3-37.3h-10.3v74.8H863.7z"/>
	</g>
</g>
<g id="A">
	<g>
		<path class="st0" d="M547.8,192.7h-51.5l-11.7,23.1h-27.9l63.3-124.5h7.3l58.7,124.5h-27.5L547.8,192.7z M536.1,167.9l-13-27.7
			l-14,27.7H536.1z"/>
	</g>
</g>
<g id="B">
	<g>
		<path class="st0" d="M160.4,91.5c20.1,0,36.4,16.3,36.4,36.4c0,7.6-2.3,14.6-6.4,20.4c9,6.9,14.7,17.8,14.7,29.8
			c0,21-16.9,37.6-37.6,37.6h-41V91.5H160.4z M159.4,140.7c6.9,0,14.4-5.7,14.4-14.4s-7.5-14-14.4-14h-10.8v28.4H159.4z
			 M167.2,194.7c8.3,0,15.3-6.6,15.3-14.9s-6.9-15.1-15.3-15.1h-18.1v30H167.2z"/>
	</g>
</g>
<g id="_x35_">
	<path class="st0" d="M1754.5,0.1h-331.7v331.7l0,0h331.7l0,0L1754.5,0.1L1754.5,0.1z M1715.1,239h-259.8V67.4h259.8V239z"/>
</g>
<g id="_x34_">
	<path class="st0" d="M1398.6,0H1067v331.7l0,0h331.7l0,0L1398.6,0L1398.6,0z M1359.2,238.9h-259.8V67.3h259.8V238.9z"/>
</g>
<g id="_x33_">
	<path class="st0" d="M1043,0H711.3v331.7l0,0H1043l0,0L1043,0L1043,0z M1003.6,238.9H743.8V67.3h259.8V238.9z"/>
</g>
<g id="_x32_">
	<path class="st0" d="M687.3,0.1H355.6v331.7l0,0h331.7l0,0L687.3,0.1L687.3,0.1z M647.9,239H388.1V67.4h259.8V239z"/>
</g>
<g id="_x31_">
	<path class="st0" d="M331.7,0.1H0v331.7l0,0h331.7l0,0L331.7,0.1L331.7,0.1z M292.2,239H32.5V67.4h259.8V239z"/>
	<g>
		<path class="st1" d="M50.3,417.7c0,2.2-0.4,4.1-1.3,5.8c-0.9,1.7-2.1,3.1-3.6,4.2c-1.5,1.1-3.3,2-5.3,2.6c-2,0.6-4.2,0.9-6.5,0.9
			H8.4v-52h27.8c1.8,0,3.4,0.4,4.9,1.2s2.7,1.8,3.7,3c1,1.2,1.8,2.7,2.4,4.2c0.6,1.6,0.8,3.2,0.8,4.8c0,2.5-0.6,4.9-1.9,7.1
			c-1.3,2.2-3.1,3.9-5.6,4.9c3,0.9,5.3,2.5,7.1,4.7C49.5,411.4,50.3,414.3,50.3,417.7z M18.5,387.7v13.1H32c1.7,0,3.2-0.6,4.4-1.8
			c1.2-1.2,1.8-2.8,1.8-4.8c0-2-0.5-3.6-1.6-4.8c-1.1-1.2-2.5-1.8-4.1-1.8H18.5z M40.1,415.8c0-0.9-0.2-1.8-0.5-2.7
			c-0.3-0.9-0.7-1.6-1.3-2.2c-0.5-0.6-1.2-1.1-1.9-1.5c-0.7-0.4-1.5-0.5-2.4-0.5H18.5v13.7h15c0.9,0,1.8-0.2,2.6-0.5
			c0.8-0.3,1.5-0.8,2.1-1.4c0.6-0.6,1-1.3,1.4-2.2C40,417.6,40.1,416.7,40.1,415.8z"/>
		<path class="st1" d="M67.8,431.8c-1.9,0-3.6-0.3-5.2-0.9c-1.6-0.6-3-1.5-4.2-2.6c-1.2-1.1-2.1-2.4-2.7-3.8c-0.7-1.5-1-3.1-1-4.8
			c0-1.8,0.4-3.5,1.2-5c0.8-1.5,1.9-2.8,3.4-3.9c1.4-1.1,3.2-1.9,5.2-2.5c2-0.6,4.2-0.9,6.6-0.9c1.7,0,3.4,0.1,5,0.4
			c1.6,0.3,3.1,0.7,4.4,1.2v-2.2c0-2.5-0.7-4.5-2.2-5.9c-1.4-1.4-3.6-2.1-6.4-2.1c-2.1,0-4.1,0.4-6,1.1c-2,0.7-4,1.8-6,3.2l-3-6.2
			c4.9-3.3,10.3-4.9,16-4.9c5.5,0,9.8,1.4,12.9,4.1c3.1,2.7,4.6,6.6,4.6,11.8v11.9c0,1,0.2,1.8,0.5,2.2s1,0.7,1.8,0.7v8.4
			c-1.7,0.3-3.1,0.5-4.3,0.5c-1.9,0-3.3-0.4-4.3-1.2c-1-0.8-1.6-1.9-1.9-3.3l-0.2-2.1c-1.7,2.2-3.8,4-6.2,5.1
			C73.2,431.3,70.5,431.8,67.8,431.8z M70.5,424.7c1.7,0,3.2-0.3,4.7-0.9c1.5-0.6,2.6-1.4,3.5-2.3c1.1-0.8,1.6-1.8,1.6-2.8v-4.4
			c-1.2-0.4-2.4-0.8-3.8-1.1c-1.4-0.3-2.7-0.4-4-0.4c-2.5,0-4.6,0.6-6.2,1.7c-1.6,1.1-2.4,2.6-2.4,4.4c0,1.7,0.6,3,1.9,4.1
			C67.1,424.1,68.7,424.7,70.5,424.7z"/>
		<path class="st1" d="M135,431.1h-9.8v-21.5c0-3.1-0.5-5.3-1.6-6.7c-1.1-1.4-2.6-2.1-4.5-2.1c-1,0-2,0.2-3,0.6
			c-1,0.4-2,0.9-2.9,1.6c-0.9,0.7-1.7,1.6-2.5,2.5c-0.7,1-1.3,2.1-1.6,3.2v22.4h-9.8v-38.4h8.9v7.1c1.4-2.4,3.5-4.3,6.2-5.7
			c2.7-1.4,5.7-2.1,9.1-2.1c2.4,0,4.3,0.4,5.9,1.3c1.5,0.9,2.7,2,3.5,3.4c0.8,1.4,1.4,3,1.7,4.8c0.3,1.8,0.5,3.6,0.5,5.5V431.1z"/>
		<path class="st1" d="M141.2,411.9c0-2.7,0.5-5.2,1.4-7.6c0.9-2.4,2.3-4.5,4-6.3c1.8-1.8,3.9-3.2,6.4-4.3c2.5-1.1,5.3-1.6,8.4-1.6
			c4.2,0,7.8,0.9,10.7,2.7c3,1.8,5.2,4.2,6.6,7.1l-9.6,2.9c-0.8-1.4-1.9-2.5-3.3-3.3c-1.4-0.8-2.9-1.1-4.5-1.1c-1.4,0-2.7,0.3-4,0.8
			c-1.2,0.6-2.3,1.3-3.2,2.3c-0.9,1-1.6,2.2-2.1,3.6c-0.5,1.4-0.8,3-0.8,4.7c0,1.7,0.3,3.3,0.8,4.7c0.5,1.4,1.3,2.6,2.2,3.7
			c0.9,1,2,1.8,3.2,2.4c1.2,0.6,2.5,0.8,3.9,0.8c1.8,0,3.4-0.4,4.9-1.3c1.5-0.9,2.5-2,3.1-3.2l9.6,2.9c-1.3,2.9-3.5,5.3-6.5,7.2
			c-3,1.9-6.7,2.8-10.9,2.8c-3.1,0-5.9-0.5-8.4-1.6c-2.5-1.1-4.6-2.5-6.4-4.4c-1.8-1.8-3.1-4-4.1-6.4
			C141.7,417.1,141.2,414.6,141.2,411.9z"/>
		<path class="st1" d="M202.3,431.8c-3.1,0-5.9-0.5-8.4-1.6c-2.5-1.1-4.6-2.5-6.3-4.4c-1.7-1.8-3.1-3.9-4-6.3
			c-0.9-2.4-1.4-4.9-1.4-7.5c0-2.7,0.5-5.2,1.4-7.6c0.9-2.4,2.3-4.5,4-6.3c1.7-1.8,3.8-3.3,6.3-4.4c2.5-1.1,5.3-1.6,8.4-1.6
			c3.1,0,5.9,0.5,8.4,1.6c2.5,1.1,4.6,2.5,6.3,4.4c1.7,1.8,3.1,3.9,4,6.3c0.9,2.4,1.4,4.9,1.4,7.6c0,2.6-0.5,5.2-1.4,7.5
			c-0.9,2.4-2.2,4.5-4,6.3c-1.7,1.8-3.8,3.3-6.3,4.4C208.2,431.3,205.4,431.8,202.3,431.8z M192.2,412c0,1.7,0.3,3.3,0.8,4.7
			c0.5,1.4,1.2,2.6,2.1,3.6c0.9,1,2,1.8,3.2,2.4c1.2,0.6,2.5,0.8,4,0.8c1.4,0,2.7-0.3,4-0.8c1.2-0.6,2.3-1.4,3.2-2.4
			c0.9-1,1.6-2.2,2.1-3.7c0.5-1.4,0.8-3,0.8-4.7c0-1.7-0.3-3.2-0.8-4.6c-0.5-1.4-1.2-2.6-2.1-3.7c-0.9-1-2-1.8-3.2-2.4
			c-1.2-0.6-2.5-0.8-4-0.8c-1.4,0-2.7,0.3-4,0.9c-1.2,0.6-2.3,1.4-3.2,2.4c-0.9,1-1.6,2.2-2.1,3.7
			C192.5,408.8,192.2,410.3,192.2,412z"/>
		<path class="st1" d="M262.4,431.8c-2.6,0-5.1-0.5-7.3-1.5c-2.2-1-4.2-2.4-5.8-4.2c-1.6-1.8-2.9-3.9-3.8-6.3
			c-0.9-2.4-1.4-5-1.4-7.8s0.4-5.4,1.3-7.8c0.9-2.4,2-4.5,3.6-6.3c1.5-1.8,3.3-3.2,5.4-4.2c2.1-1,4.4-1.5,6.9-1.5
			c2.8,0,5.4,0.7,7.7,2.1c2.3,1.4,4,3.2,5.3,5.3v-21.8h9.8v42.2c0,1,0.2,1.8,0.5,2.2c0.3,0.4,0.9,0.7,1.8,0.7v8.4
			c-1.7,0.3-3.1,0.5-4.2,0.5c-1.8,0-3.2-0.4-4.3-1.3c-1.1-0.9-1.8-2-1.9-3.4l-0.2-2.4c-1.4,2.4-3.3,4.3-5.8,5.5
			C267.6,431.2,265.1,431.8,262.4,431.8z M265,423.5c0.9,0,1.9-0.2,2.9-0.5c1-0.3,1.9-0.8,2.7-1.4c0.8-0.6,1.6-1.3,2.2-2.1
			c0.7-0.8,1.2-1.6,1.5-2.6v-9.2c-0.4-1.1-0.9-2.1-1.6-3c-0.7-0.9-1.5-1.7-2.4-2.3c-0.9-0.7-1.9-1.2-2.9-1.6c-1-0.4-2-0.6-3-0.6
			c-1.5,0-2.8,0.3-4.1,1c-1.2,0.6-2.3,1.5-3.2,2.6c-0.9,1.1-1.6,2.4-2.1,3.8c-0.5,1.4-0.7,2.9-0.7,4.4c0,1.6,0.3,3.1,0.8,4.5
			c0.5,1.4,1.3,2.6,2.2,3.6c0.9,1,2,1.8,3.3,2.4C262,423.2,263.4,423.5,265,423.5z"/>
		<path class="st1" d="M311.6,431.8c-3.1,0-5.9-0.5-8.4-1.6c-2.5-1-4.6-2.5-6.4-4.3c-1.8-1.8-3.1-3.9-4.1-6.3
			c-1-2.4-1.4-4.9-1.4-7.5c0-2.7,0.5-5.3,1.4-7.7c0.9-2.4,2.3-4.5,4-6.4s3.9-3.3,6.4-4.4c2.5-1.1,5.3-1.6,8.5-1.6
			c3.1,0,5.9,0.5,8.4,1.6c2.5,1.1,4.6,2.5,6.3,4.3c1.7,1.8,3.1,3.9,4,6.3c0.9,2.4,1.4,4.9,1.4,7.5c0,0.6,0,1.2,0,1.8
			c0,0.6-0.1,1.1-0.2,1.5h-29.7c0.1,1.5,0.5,2.9,1.1,4c0.6,1.2,1.3,2.2,2.3,3c0.9,0.8,2,1.5,3.2,1.9s2.4,0.7,3.7,0.7
			c2,0,3.8-0.5,5.5-1.4c1.7-1,2.9-2.2,3.6-3.8l8.4,2.3c-1.4,2.9-3.7,5.3-6.8,7.2C319.6,430.9,315.9,431.8,311.6,431.8z M321.6,408.7
			c-0.2-2.9-1.3-5.2-3.2-6.9c-1.9-1.7-4.2-2.6-6.9-2.6c-1.3,0-2.6,0.2-3.7,0.7c-1.1,0.5-2.2,1.1-3,1.9c-0.9,0.8-1.6,1.8-2.2,3
			c-0.6,1.2-0.9,2.5-1,3.9H321.6z"/>
		<path class="st1" d="M368.7,379.1h8.9l19.8,52h-10.4l-4.8-13H364l-4.8,13h-10.4L368.7,379.1z M380.4,411l-7.2-20.4l-7.5,20.4
			H380.4z"/>
		<path class="st1" d="M425.1,401.2c-3,0-5.6,0.6-8,1.7c-2.3,1.1-4,2.7-5.1,4.9v23.2h-9.8v-38.4h9v8.2c0.7-1.3,1.5-2.5,2.4-3.6
			c0.9-1,1.9-2,3-2.7c1.1-0.8,2.2-1.4,3.3-1.8c1.1-0.4,2.2-0.6,3.2-0.6c0.5,0,0.9,0,1.2,0c0.3,0,0.5,0,0.8,0.1V401.2z"/>
		<path class="st1" d="M426.2,411.9c0-2.7,0.5-5.2,1.4-7.6c0.9-2.4,2.3-4.5,4-6.3c1.8-1.8,3.9-3.2,6.4-4.3c2.5-1.1,5.3-1.6,8.4-1.6
			c4.2,0,7.8,0.9,10.7,2.7c3,1.8,5.2,4.2,6.6,7.1l-9.6,2.9c-0.8-1.4-1.9-2.5-3.3-3.3c-1.4-0.8-2.9-1.1-4.5-1.1c-1.4,0-2.7,0.3-4,0.8
			c-1.2,0.6-2.3,1.3-3.2,2.3c-0.9,1-1.6,2.2-2.1,3.6c-0.5,1.4-0.8,3-0.8,4.7c0,1.7,0.3,3.3,0.8,4.7c0.5,1.4,1.3,2.6,2.2,3.7
			c0.9,1,2,1.8,3.2,2.4c1.2,0.6,2.5,0.8,3.9,0.8c1.8,0,3.4-0.4,4.9-1.3c1.5-0.9,2.5-2,3.1-3.2l9.6,2.9c-1.3,2.9-3.5,5.3-6.5,7.2
			c-3,1.9-6.7,2.8-10.9,2.8c-3.1,0-5.9-0.5-8.4-1.6c-2.5-1.1-4.6-2.5-6.4-4.4c-1.8-1.8-3.1-4-4.1-6.4
			C426.7,417.1,426.2,414.6,426.2,411.9z"/>
		<path class="st1" d="M505.7,431.1h-9.8v-21.5c0-3-0.6-5.3-1.7-6.7c-1.1-1.4-2.7-2.2-4.8-2.2c-0.9,0-1.8,0.2-2.8,0.6
			c-1,0.4-1.9,0.9-2.8,1.6c-0.9,0.7-1.7,1.6-2.4,2.5c-0.7,1-1.3,2.1-1.6,3.2v22.4H470v-53.5h9.8v22.2c1.4-2.5,3.3-4.4,5.8-5.8
			c2.4-1.3,5.1-2,8-2c2.5,0,4.5,0.4,6.1,1.3c1.6,0.9,2.8,2,3.7,3.4c0.9,1.4,1.5,3,1.8,4.8c0.3,1.8,0.5,3.7,0.5,5.6V431.1z"/>
		<path class="st1" d="M514.2,387.4v-9.7h9.8v9.7H514.2z M514.2,431.1v-38.4h9.8v38.4H514.2z"/>
		<path class="st1" d="M543.3,431.1l-14.1-38.4h10.1l9.7,30.4l9.8-30.4h9.2l-14.1,38.4H543.3z"/>
		<path class="st1" d="M589.6,431.8c-3.1,0-5.9-0.5-8.4-1.6c-2.5-1.1-4.6-2.5-6.3-4.4c-1.7-1.8-3.1-3.9-4-6.3
			c-0.9-2.4-1.4-4.9-1.4-7.5c0-2.7,0.5-5.2,1.4-7.6c0.9-2.4,2.3-4.5,4-6.3c1.7-1.8,3.8-3.3,6.3-4.4c2.5-1.1,5.3-1.6,8.4-1.6
			c3.1,0,5.9,0.5,8.4,1.6c2.5,1.1,4.6,2.5,6.3,4.4c1.7,1.8,3.1,3.9,4,6.3c0.9,2.4,1.4,4.9,1.4,7.6c0,2.6-0.5,5.2-1.4,7.5
			c-0.9,2.4-2.2,4.5-4,6.3c-1.7,1.8-3.8,3.3-6.3,4.4C595.5,431.3,592.7,431.8,589.6,431.8z M579.5,412c0,1.7,0.3,3.3,0.8,4.7
			c0.5,1.4,1.2,2.6,2.1,3.6c0.9,1,2,1.8,3.2,2.4c1.2,0.6,2.5,0.8,4,0.8c1.4,0,2.7-0.3,4-0.8c1.2-0.6,2.3-1.4,3.2-2.4
			c0.9-1,1.6-2.2,2.1-3.7c0.5-1.4,0.8-3,0.8-4.7c0-1.7-0.3-3.2-0.8-4.6c-0.5-1.4-1.2-2.6-2.1-3.7c-0.9-1-2-1.8-3.2-2.4
			c-1.2-0.6-2.5-0.8-4-0.8c-1.4,0-2.7,0.3-4,0.9c-1.2,0.6-2.3,1.4-3.2,2.4c-0.9,1-1.6,2.2-2.1,3.7
			C579.8,408.8,579.5,410.3,579.5,412z"/>
		<path class="st1" d="M630.7,431.8c-3.2,0-6.4-0.5-9.5-1.5c-3.1-1-5.7-2.5-7.9-4.4l3.7-6.2c2.3,1.7,4.6,2.9,6.9,3.8
			c2.2,0.9,4.4,1.3,6.6,1.3c2,0,3.5-0.4,4.6-1.1c1.1-0.7,1.7-1.8,1.7-3.2s-0.7-2.4-2-3s-3.5-1.4-6.4-2.2c-2.5-0.7-4.6-1.3-6.4-2
			c-1.8-0.6-3.2-1.4-4.2-2.2c-1.1-0.8-1.9-1.7-2.3-2.8c-0.5-1-0.7-2.3-0.7-3.8c0-2,0.4-3.7,1.1-5.3c0.8-1.6,1.8-2.9,3.2-4
			c1.4-1.1,3-1.9,4.8-2.5s3.8-0.9,6-0.9c2.9,0,5.6,0.4,8.1,1.2c2.5,0.8,4.8,2.2,6.9,4l-4,5.9c-2-1.5-3.8-2.5-5.7-3.2
			c-1.8-0.7-3.7-1-5.5-1c-1.7,0-3.1,0.3-4.2,1c-1.1,0.7-1.7,1.8-1.7,3.3c0,0.7,0.1,1.2,0.4,1.7c0.3,0.4,0.7,0.8,1.3,1.2
			c0.6,0.3,1.4,0.7,2.3,1c1,0.3,2.1,0.6,3.6,1c2.6,0.7,4.9,1.4,6.8,2.1c1.9,0.7,3.4,1.5,4.6,2.3c1.2,0.9,2.1,1.9,2.6,3
			c0.6,1.1,0.8,2.5,0.8,4.1c0,3.8-1.4,6.7-4.2,8.9C639.3,430.8,635.5,431.8,630.7,431.8z"/>
		<path class="st1" d="M671.2,431.1v-52h18.9c4.2,0,8,0.7,11.2,2.1c3.2,1.4,5.9,3.2,8,5.6c2.1,2.3,3.8,5.1,4.8,8.2
			c1.1,3.2,1.6,6.5,1.6,10.1c0,4-0.6,7.5-1.8,10.7c-1.2,3.2-2.9,5.9-5.2,8.2c-2.2,2.3-4.9,4-8.1,5.3s-6.7,1.9-10.6,1.9H671.2z
			 M705.5,405c0-2.5-0.3-4.8-1-6.9c-0.7-2.1-1.7-3.9-3-5.4c-1.3-1.5-2.9-2.7-4.9-3.5c-1.9-0.8-4.1-1.2-6.6-1.2h-8.8v34.3h8.8
			c2.5,0,4.7-0.4,6.6-1.3c1.9-0.9,3.5-2.1,4.8-3.6c1.3-1.5,2.3-3.4,3-5.5C705.2,409.7,705.5,407.5,705.5,405z"/>
		<path class="st1" d="M722.7,387.4v-9.7h9.8v9.7H722.7z M722.7,431.1v-38.4h9.8v38.4H722.7z"/>
		<path class="st1" d="M756.4,431.3c-2.6,0-4.9-0.5-7-1.5c-2.1-1-3.9-2.4-5.5-4.2c-1.5-1.8-2.7-3.8-3.6-6.2
			c-0.8-2.3-1.2-4.8-1.2-7.5c0-2.8,0.4-5.4,1.3-7.8c0.9-2.4,2.1-4.5,3.7-6.3c1.6-1.8,3.4-3.2,5.6-4.2c2.2-1,4.6-1.5,7.3-1.5
			c3,0,5.6,0.7,7.8,2c2.2,1.3,4.1,3.1,5.6,5.4v-6.7h8.6v36.6c0,2.8-0.5,5.4-1.6,7.6c-1.1,2.2-2.6,4.2-4.4,5.7
			c-1.9,1.6-4.1,2.8-6.7,3.6c-2.6,0.8-5.5,1.2-8.5,1.2c-4.2,0-7.7-0.7-10.6-2.1c-2.9-1.4-5.3-3.4-7.4-5.9l5.3-5.2
			c1.5,1.8,3.3,3.2,5.5,4.2c2.2,1,4.6,1.5,7.1,1.5c1.5,0,3-0.2,4.4-0.6s2.6-1.1,3.7-1.9c1.1-0.9,1.9-2,2.5-3.4
			c0.6-1.4,0.9-3,0.9-4.8v-4.8c-1.3,2.2-3.1,3.9-5.3,5.1C761.5,430.7,759,431.3,756.4,431.3z M759.7,423.5c1.1,0,2.1-0.2,3.1-0.5
			c1-0.3,1.9-0.8,2.7-1.4c0.8-0.6,1.6-1.3,2.2-2.1c0.6-0.8,1.1-1.6,1.5-2.5v-9.2c-0.9-2.2-2.3-4.1-4.1-5.4c-1.9-1.4-3.8-2.1-5.9-2.1
			c-1.5,0-2.9,0.3-4.1,1c-1.2,0.7-2.3,1.5-3.2,2.6c-0.9,1.1-1.6,2.4-2,3.8c-0.5,1.4-0.7,2.9-0.7,4.4c0,1.6,0.3,3,0.8,4.4
			c0.5,1.4,1.3,2.6,2.2,3.6c1,1,2.1,1.8,3.3,2.4C756.8,423.2,758.2,423.5,759.7,423.5z"/>
		<path class="st1" d="M787.8,387.4v-9.7h9.8v9.7H787.8z M787.8,431.1v-38.4h9.8v38.4H787.8z"/>
		<path class="st1" d="M829.5,429.1c-1.3,0.6-2.9,1.2-4.8,1.8c-1.9,0.6-3.9,0.9-6,0.9c-1.4,0-2.7-0.2-3.8-0.5
			c-1.2-0.3-2.2-0.9-3.2-1.6c-0.9-0.8-1.6-1.7-2.2-2.9c-0.5-1.2-0.8-2.6-0.8-4.4v-22.1h-5.1v-7.5h5.1v-12.5h9.8v12.5h8.1v7.5h-8.1
			V419c0,1.4,0.4,2.3,1.1,2.9c0.7,0.6,1.6,0.8,2.6,0.8s2-0.2,3-0.5c1-0.3,1.8-0.6,2.3-0.9L829.5,429.1z"/>
		<path class="st1" d="M845.1,431.8c-1.9,0-3.6-0.3-5.2-0.9c-1.6-0.6-3-1.5-4.2-2.6c-1.2-1.1-2.1-2.4-2.7-3.8c-0.7-1.5-1-3.1-1-4.8
			c0-1.8,0.4-3.5,1.2-5c0.8-1.5,1.9-2.8,3.4-3.9c1.4-1.1,3.2-1.9,5.2-2.5c2-0.6,4.2-0.9,6.6-0.9c1.7,0,3.4,0.1,5,0.4
			c1.6,0.3,3.1,0.7,4.4,1.2v-2.2c0-2.5-0.7-4.5-2.2-5.9c-1.4-1.4-3.6-2.1-6.4-2.1c-2.1,0-4.1,0.4-6,1.1c-2,0.7-4,1.8-6,3.2l-3-6.2
			c4.9-3.3,10.3-4.9,16-4.9c5.5,0,9.8,1.4,12.9,4.1c3.1,2.7,4.6,6.6,4.6,11.8v11.9c0,1,0.2,1.8,0.5,2.2s1,0.7,1.8,0.7v8.4
			c-1.7,0.3-3.1,0.5-4.3,0.5c-1.9,0-3.3-0.4-4.3-1.2c-1-0.8-1.6-1.9-1.9-3.3l-0.2-2.1c-1.7,2.2-3.8,4-6.2,5.1
			C850.5,431.3,847.9,431.8,845.1,431.8z M847.9,424.7c1.7,0,3.2-0.3,4.7-0.9c1.5-0.6,2.6-1.4,3.5-2.3c1.1-0.8,1.6-1.8,1.6-2.8v-4.4
			c-1.2-0.4-2.4-0.8-3.8-1.1c-1.4-0.3-2.7-0.4-4-0.4c-2.5,0-4.6,0.6-6.2,1.7c-1.6,1.1-2.4,2.6-2.4,4.4c0,1.7,0.6,3,1.9,4.1
			C844.5,424.1,846,424.7,847.9,424.7z"/>
		<path class="st1" d="M876.6,377.6h9.8v41.2c0,1.4,0.3,2.5,1,3.3c0.7,0.8,1.7,1.2,2.9,1.2c0.6,0,1.2-0.1,1.9-0.3
			c0.7-0.2,1.4-0.4,2-0.7l1.3,7.5c-1.3,0.6-2.9,1.1-4.6,1.5s-3.3,0.5-4.8,0.5c-3.1,0-5.5-0.8-7.1-2.5c-1.7-1.6-2.5-4-2.5-7V377.6z"
			/>
		<path class="st1" d="M917.7,431.8c-3.1,0-5.9-0.5-8.4-1.6c-2.5-1-4.6-2.5-6.4-4.3c-1.8-1.8-3.1-3.9-4.1-6.3
			c-1-2.4-1.4-4.9-1.4-7.5c0-2.7,0.5-5.3,1.4-7.7c0.9-2.4,2.3-4.5,4-6.4c1.8-1.8,3.9-3.3,6.4-4.4c2.5-1.1,5.3-1.6,8.5-1.6
			c3.1,0,5.9,0.5,8.4,1.6c2.5,1.1,4.6,2.5,6.3,4.3c1.7,1.8,3.1,3.9,4,6.3c0.9,2.4,1.4,4.9,1.4,7.5c0,0.6,0,1.2,0,1.8
			c0,0.6-0.1,1.1-0.2,1.5h-29.7c0.1,1.5,0.5,2.9,1.1,4c0.6,1.2,1.3,2.2,2.3,3c0.9,0.8,2,1.5,3.2,1.9s2.4,0.7,3.7,0.7
			c2,0,3.8-0.5,5.5-1.4c1.7-1,2.9-2.2,3.6-3.8l8.4,2.3c-1.4,2.9-3.7,5.3-6.8,7.2C925.7,430.9,922,431.8,917.7,431.8z M927.7,408.7
			c-0.2-2.9-1.3-5.2-3.2-6.9c-1.9-1.7-4.2-2.6-6.9-2.6c-1.3,0-2.6,0.2-3.7,0.7s-2.2,1.1-3,1.9c-0.9,0.8-1.6,1.8-2.2,3
			c-0.6,1.2-0.9,2.5-1,3.9H927.7z"/>
		<path class="st1" d="M958.3,431.8c-3.2,0-6.4-0.5-9.5-1.5c-3.1-1-5.7-2.5-7.9-4.4l3.7-6.2c2.3,1.7,4.6,2.9,6.8,3.8
			c2.2,0.9,4.4,1.3,6.6,1.3c2,0,3.5-0.4,4.6-1.1c1.1-0.7,1.7-1.8,1.7-3.2s-0.7-2.4-2-3c-1.3-0.6-3.5-1.4-6.4-2.2
			c-2.5-0.7-4.6-1.3-6.4-2c-1.8-0.6-3.2-1.4-4.2-2.2c-1.1-0.8-1.9-1.7-2.3-2.8c-0.5-1-0.7-2.3-0.7-3.8c0-2,0.4-3.7,1.1-5.3
			c0.8-1.6,1.8-2.9,3.2-4c1.4-1.1,3-1.9,4.8-2.5c1.8-0.6,3.8-0.9,6-0.9c2.9,0,5.6,0.4,8.1,1.2c2.5,0.8,4.8,2.2,6.9,4l-4,5.9
			c-2-1.5-3.8-2.5-5.7-3.2c-1.8-0.7-3.7-1-5.5-1c-1.7,0-3.1,0.3-4.2,1c-1.1,0.7-1.7,1.8-1.7,3.3c0,0.7,0.1,1.2,0.4,1.7
			c0.3,0.4,0.7,0.8,1.3,1.2c0.6,0.3,1.4,0.7,2.3,1c1,0.3,2.1,0.6,3.6,1c2.6,0.7,4.9,1.4,6.8,2.1c1.9,0.7,3.4,1.5,4.6,2.3
			c1.2,0.9,2.1,1.9,2.6,3s0.8,2.5,0.8,4.1c0,3.8-1.4,6.7-4.2,8.9C966.9,430.8,963.1,431.8,958.3,431.8z"/>
		<path class="st1" d="M1013.7,431.8c-2.6,0-5.1-0.5-7.3-1.5c-2.2-1-4.2-2.4-5.8-4.2c-1.6-1.8-2.9-3.9-3.8-6.3
			c-0.9-2.4-1.4-5-1.4-7.8s0.4-5.4,1.3-7.8c0.9-2.4,2-4.5,3.6-6.3c1.5-1.8,3.3-3.2,5.4-4.2c2.1-1,4.4-1.5,6.9-1.5
			c2.8,0,5.4,0.7,7.7,2.1c2.3,1.4,4,3.2,5.3,5.3v-21.8h9.8v42.2c0,1,0.2,1.8,0.5,2.2c0.3,0.4,0.9,0.7,1.8,0.7v8.4
			c-1.7,0.3-3.1,0.5-4.2,0.5c-1.8,0-3.2-0.4-4.3-1.3c-1.1-0.9-1.8-2-1.9-3.4l-0.2-2.4c-1.4,2.4-3.3,4.3-5.8,5.5
			C1018.8,431.2,1016.3,431.8,1013.7,431.8z M1016.2,423.5c0.9,0,1.9-0.2,2.9-0.5c1-0.3,1.9-0.8,2.7-1.4c0.8-0.6,1.6-1.3,2.2-2.1
			c0.7-0.8,1.2-1.6,1.5-2.6v-9.2c-0.4-1.1-0.9-2.1-1.6-3c-0.7-0.9-1.5-1.7-2.4-2.3c-0.9-0.7-1.9-1.2-2.9-1.6c-1-0.4-2-0.6-3-0.6
			c-1.5,0-2.8,0.3-4.1,1c-1.2,0.6-2.3,1.5-3.2,2.6c-0.9,1.1-1.6,2.4-2.1,3.8s-0.7,2.9-0.7,4.4c0,1.6,0.3,3.1,0.8,4.5
			c0.5,1.4,1.3,2.6,2.2,3.6c0.9,1,2,1.8,3.3,2.4S1014.7,423.5,1016.2,423.5z"/>
		<path class="st1" d="M1062.8,431.8c-3.1,0-5.9-0.5-8.4-1.6c-2.5-1-4.6-2.5-6.4-4.3c-1.8-1.8-3.1-3.9-4.1-6.3
			c-1-2.4-1.4-4.9-1.4-7.5c0-2.7,0.5-5.3,1.4-7.7c0.9-2.4,2.3-4.5,4-6.4c1.8-1.8,3.9-3.3,6.4-4.4c2.5-1.1,5.3-1.6,8.5-1.6
			c3.1,0,5.9,0.5,8.4,1.6c2.5,1.1,4.6,2.5,6.3,4.3c1.7,1.8,3.1,3.9,4,6.3c0.9,2.4,1.4,4.9,1.4,7.5c0,0.6,0,1.2,0,1.8
			c0,0.6-0.1,1.1-0.2,1.5H1053c0.1,1.5,0.5,2.9,1.1,4c0.6,1.2,1.3,2.2,2.3,3c0.9,0.8,2,1.5,3.2,1.9s2.4,0.7,3.7,0.7
			c2,0,3.8-0.5,5.5-1.4c1.7-1,2.9-2.2,3.6-3.8l8.4,2.3c-1.4,2.9-3.7,5.3-6.8,7.2C1070.8,430.9,1067.1,431.8,1062.8,431.8z
			 M1072.8,408.7c-0.2-2.9-1.3-5.2-3.2-6.9c-1.9-1.7-4.2-2.6-6.9-2.6c-1.3,0-2.6,0.2-3.7,0.7s-2.2,1.1-3,1.9c-0.9,0.8-1.6,1.8-2.2,3
			c-0.6,1.2-0.9,2.5-1,3.9H1072.8z"/>
		<path class="st1" d="M1120,379.1h8.9l19.8,52h-10.4l-4.8-13h-18.2l-4.8,13h-10.4L1120,379.1z M1131.6,411l-7.2-20.4L1117,411
			H1131.6z"/>
		<path class="st1" d="M1176.3,401.2c-3,0-5.6,0.6-8,1.7c-2.3,1.1-4,2.7-5.1,4.9v23.2h-9.8v-38.4h9v8.2c0.7-1.3,1.5-2.5,2.4-3.6
			c0.9-1,1.9-2,3-2.7c1.1-0.8,2.2-1.4,3.3-1.8c1.1-0.4,2.2-0.6,3.2-0.6c0.5,0,0.9,0,1.2,0c0.3,0,0.5,0,0.8,0.1V401.2z"/>
		<path class="st1" d="M1204.8,429.1c-1.3,0.6-2.9,1.2-4.8,1.8c-1.9,0.6-3.9,0.9-6,0.9c-1.4,0-2.6-0.2-3.8-0.5
			c-1.2-0.3-2.2-0.9-3.2-1.6c-0.9-0.8-1.6-1.7-2.2-2.9c-0.5-1.2-0.8-2.6-0.8-4.4v-22.1h-5.1v-7.5h5.1v-12.5h9.8v12.5h8.1v7.5h-8.1
			V419c0,1.4,0.4,2.3,1.1,2.9c0.7,0.6,1.6,0.8,2.6,0.8c1,0,2-0.2,3-0.5c1-0.3,1.8-0.6,2.3-0.9L1204.8,429.1z"/>
		<path class="st1" d="M1226.8,431.8c-3.1,0-5.9-0.5-8.4-1.6c-2.5-1-4.6-2.5-6.4-4.3c-1.8-1.8-3.1-3.9-4.1-6.3
			c-1-2.4-1.4-4.9-1.4-7.5c0-2.7,0.5-5.3,1.4-7.7c0.9-2.4,2.3-4.5,4-6.4c1.8-1.8,3.9-3.3,6.4-4.4c2.5-1.1,5.3-1.6,8.5-1.6
			c3.1,0,5.9,0.5,8.4,1.6c2.5,1.1,4.6,2.5,6.3,4.3c1.7,1.8,3.1,3.9,4,6.3c0.9,2.4,1.4,4.9,1.4,7.5c0,0.6,0,1.2,0,1.8
			c0,0.6-0.1,1.1-0.2,1.5H1217c0.1,1.5,0.5,2.9,1.1,4c0.6,1.2,1.3,2.2,2.3,3c0.9,0.8,2,1.5,3.2,1.9s2.4,0.7,3.7,0.7
			c2,0,3.8-0.5,5.5-1.4c1.7-1,2.9-2.2,3.6-3.8l8.4,2.3c-1.4,2.9-3.7,5.3-6.8,7.2C1234.8,430.9,1231.1,431.8,1226.8,431.8z
			 M1236.8,408.7c-0.2-2.9-1.3-5.2-3.2-6.9c-1.9-1.7-4.2-2.6-6.9-2.6c-1.3,0-2.6,0.2-3.7,0.7s-2.2,1.1-3,1.9c-0.9,0.8-1.6,1.8-2.2,3
			c-0.6,1.2-0.9,2.5-1,3.9H1236.8z"/>
		<path class="st1" d="M1267.4,431.8c-3.2,0-6.4-0.5-9.5-1.5c-3.1-1-5.7-2.5-7.9-4.4l3.7-6.2c2.3,1.7,4.6,2.9,6.8,3.8
			c2.2,0.9,4.4,1.3,6.6,1.3c2,0,3.5-0.4,4.6-1.1c1.1-0.7,1.7-1.8,1.7-3.2s-0.7-2.4-2-3c-1.3-0.6-3.5-1.4-6.4-2.2
			c-2.5-0.7-4.6-1.3-6.4-2c-1.8-0.6-3.2-1.4-4.2-2.2c-1.1-0.8-1.9-1.7-2.3-2.8c-0.5-1-0.7-2.3-0.7-3.8c0-2,0.4-3.7,1.1-5.3
			c0.8-1.6,1.8-2.9,3.2-4c1.4-1.1,3-1.9,4.8-2.5c1.8-0.6,3.8-0.9,6-0.9c2.9,0,5.6,0.4,8.1,1.2c2.5,0.8,4.8,2.2,6.9,4l-4,5.9
			c-2-1.5-3.8-2.5-5.7-3.2c-1.8-0.7-3.7-1-5.5-1c-1.7,0-3.1,0.3-4.2,1c-1.1,0.7-1.7,1.8-1.7,3.3c0,0.7,0.1,1.2,0.4,1.7
			c0.3,0.4,0.7,0.8,1.3,1.2c0.6,0.3,1.4,0.7,2.3,1c1,0.3,2.1,0.6,3.6,1c2.6,0.7,4.9,1.4,6.8,2.1c1.9,0.7,3.4,1.5,4.6,2.3
			c1.2,0.9,2.1,1.9,2.6,3s0.8,2.5,0.8,4.1c0,3.8-1.4,6.7-4.2,8.9C1276,430.8,1272.2,431.8,1267.4,431.8z"/>
		<path class="st1" d="M1324.7,431.8c-3.1,0-5.9-0.5-8.4-1.6c-2.5-1-4.6-2.5-6.4-4.3c-1.8-1.8-3.1-3.9-4.1-6.3
			c-1-2.4-1.4-4.9-1.4-7.5c0-2.7,0.5-5.3,1.4-7.7c0.9-2.4,2.3-4.5,4-6.4c1.8-1.8,3.9-3.3,6.4-4.4c2.5-1.1,5.3-1.6,8.5-1.6
			c3.1,0,5.9,0.5,8.4,1.6c2.5,1.1,4.6,2.5,6.3,4.3c1.7,1.8,3.1,3.9,4,6.3c0.9,2.4,1.4,4.9,1.4,7.5c0,0.6,0,1.2,0,1.8
			c0,0.6-0.1,1.1-0.2,1.5h-29.7c0.1,1.5,0.5,2.9,1.1,4c0.6,1.2,1.3,2.2,2.3,3c0.9,0.8,2,1.5,3.2,1.9s2.4,0.7,3.7,0.7
			c2,0,3.8-0.5,5.5-1.4c1.7-1,2.9-2.2,3.6-3.8l8.4,2.3c-1.4,2.9-3.7,5.3-6.8,7.2C1332.7,430.9,1329,431.8,1324.7,431.8z
			 M1334.6,408.7c-0.2-2.9-1.3-5.2-3.2-6.9c-1.9-1.7-4.2-2.6-6.9-2.6c-1.3,0-2.6,0.2-3.7,0.7s-2.2,1.1-3,1.9c-0.9,0.8-1.6,1.8-2.2,3
			c-0.6,1.2-0.9,2.5-1,3.9H1334.6z"/>
		<path class="st1" d="M1386.4,431.1h-9.8v-21.5c0-3.1-0.5-5.3-1.6-6.7c-1.1-1.4-2.6-2.1-4.5-2.1c-1,0-2,0.2-3,0.6
			c-1,0.4-2,0.9-2.9,1.6c-0.9,0.7-1.7,1.6-2.5,2.5c-0.7,1-1.3,2.1-1.6,3.2v22.4h-9.8v-38.4h8.9v7.1c1.4-2.4,3.5-4.3,6.2-5.7
			c2.7-1.4,5.7-2.1,9.1-2.1c2.4,0,4.3,0.4,5.9,1.3c1.5,0.9,2.7,2,3.5,3.4c0.8,1.4,1.4,3,1.7,4.8c0.3,1.8,0.5,3.6,0.5,5.5V431.1z"/>
		<path class="st1" d="M1410.4,404.7c0-3.2,0.6-6.3,1.7-9.4c1.1-3.1,2.8-5.9,5-8.3c2.2-2.4,4.9-4.4,8.1-5.9
			c3.2-1.5,6.8-2.3,10.8-2.3c4.8,0,8.9,1.1,12.4,3.2c3.5,2.1,6.1,4.8,7.8,8.2l-7.8,5.3c-0.7-1.5-1.5-2.7-2.5-3.7c-1-1-2-1.8-3.2-2.4
			c-1.1-0.6-2.3-1-3.5-1.3c-1.2-0.3-2.4-0.4-3.6-0.4c-2.5,0-4.8,0.5-6.6,1.5c-1.9,1-3.4,2.4-4.7,4c-1.2,1.6-2.2,3.5-2.8,5.6
			c-0.6,2.1-1,4.1-1,6.2c0,2.3,0.4,4.5,1.1,6.6c0.7,2.1,1.8,4,3.1,5.6c1.3,1.6,3,2.9,4.8,3.9c1.9,1,3.9,1.5,6.2,1.5
			c1.2,0,2.4-0.1,3.7-0.4c1.3-0.3,2.5-0.8,3.6-1.4c1.1-0.6,2.2-1.5,3.2-2.5c1-1,1.8-2.2,2.3-3.6l8.3,4.8c-0.8,2-2,3.7-3.6,5.2
			c-1.5,1.5-3.3,2.7-5.2,3.8s-4,1.8-6.2,2.3s-4.3,0.8-6.4,0.8c-3.7,0-7.1-0.8-10.2-2.3c-3.1-1.6-5.7-3.6-8-6.1
			c-2.2-2.5-4-5.4-5.2-8.6C1411,411.3,1410.4,408.1,1410.4,404.7z"/>
		<path class="st1" d="M1480.6,431.8c-3.1,0-5.9-0.5-8.4-1.6c-2.5-1.1-4.6-2.5-6.3-4.4c-1.7-1.8-3.1-3.9-4-6.3
			c-0.9-2.4-1.4-4.9-1.4-7.5c0-2.7,0.5-5.2,1.4-7.6c0.9-2.4,2.3-4.5,4-6.3c1.7-1.8,3.8-3.3,6.3-4.4c2.5-1.1,5.3-1.6,8.4-1.6
			c3.1,0,5.9,0.5,8.4,1.6c2.5,1.1,4.6,2.5,6.3,4.4c1.7,1.8,3.1,3.9,4,6.3c0.9,2.4,1.4,4.9,1.4,7.6c0,2.6-0.5,5.2-1.4,7.5
			c-0.9,2.4-2.2,4.5-4,6.3c-1.7,1.8-3.8,3.3-6.3,4.4C1486.5,431.3,1483.7,431.8,1480.6,431.8z M1470.6,412c0,1.7,0.3,3.3,0.8,4.7
			c0.5,1.4,1.2,2.6,2.1,3.6c0.9,1,2,1.8,3.2,2.4c1.2,0.6,2.5,0.8,4,0.8c1.4,0,2.7-0.3,4-0.8s2.3-1.4,3.2-2.4c0.9-1,1.6-2.2,2.1-3.7
			c0.5-1.4,0.8-3,0.8-4.7c0-1.7-0.3-3.2-0.8-4.6c-0.5-1.4-1.2-2.6-2.1-3.7c-0.9-1-2-1.8-3.2-2.4c-1.2-0.6-2.5-0.8-4-0.8
			c-1.4,0-2.7,0.3-4,0.9c-1.2,0.6-2.3,1.4-3.2,2.4c-0.9,1-1.6,2.2-2.1,3.7C1470.8,408.8,1470.6,410.3,1470.6,412z"/>
		<path class="st1" d="M1507.2,377.6h9.8v41.2c0,1.4,0.3,2.5,1,3.3c0.7,0.8,1.7,1.2,2.9,1.2c0.6,0,1.2-0.1,1.9-0.3
			c0.7-0.2,1.4-0.4,2-0.7l1.3,7.5c-1.3,0.6-2.9,1.1-4.6,1.5s-3.3,0.5-4.8,0.5c-3.1,0-5.5-0.8-7.1-2.5c-1.7-1.6-2.5-4-2.5-7V377.6z"
			/>
		<path class="st1" d="M1548.2,431.8c-3.1,0-5.9-0.5-8.4-1.6c-2.5-1.1-4.6-2.5-6.3-4.4c-1.7-1.8-3.1-3.9-4-6.3
			c-0.9-2.4-1.4-4.9-1.4-7.5c0-2.7,0.5-5.2,1.4-7.6c0.9-2.4,2.3-4.5,4-6.3c1.7-1.8,3.8-3.3,6.3-4.4c2.5-1.1,5.3-1.6,8.4-1.6
			c3.1,0,5.9,0.5,8.4,1.6c2.5,1.1,4.6,2.5,6.3,4.4c1.7,1.8,3.1,3.9,4,6.3c0.9,2.4,1.4,4.9,1.4,7.6c0,2.6-0.5,5.2-1.4,7.5
			c-0.9,2.4-2.2,4.5-4,6.3c-1.7,1.8-3.8,3.3-6.3,4.4C1554.1,431.3,1551.3,431.8,1548.2,431.8z M1538.2,412c0,1.7,0.3,3.3,0.8,4.7
			c0.5,1.4,1.2,2.6,2.1,3.6c0.9,1,2,1.8,3.2,2.4c1.2,0.6,2.5,0.8,4,0.8c1.4,0,2.7-0.3,4-0.8s2.3-1.4,3.2-2.4c0.9-1,1.6-2.2,2.1-3.7
			c0.5-1.4,0.8-3,0.8-4.7c0-1.7-0.3-3.2-0.8-4.6c-0.5-1.4-1.2-2.6-2.1-3.7c-0.9-1-2-1.8-3.2-2.4c-1.2-0.6-2.5-0.8-4-0.8
			c-1.4,0-2.7,0.3-4,0.9c-1.2,0.6-2.3,1.4-3.2,2.4c-0.9,1-1.6,2.2-2.1,3.7C1538.4,408.8,1538.2,410.3,1538.2,412z"/>
		<path class="st1" d="M1634.5,431.1h-9.8v-21.5c0-3.1-0.5-5.3-1.6-6.7c-1.1-1.4-2.5-2.1-4.4-2.1c-2,0-3.8,0.7-5.5,2.2
			c-1.7,1.5-2.9,3.4-3.7,5.8v22.3h-9.8v-21.5c0-3.1-0.5-5.3-1.6-6.7c-1.1-1.4-2.5-2.1-4.4-2.1c-1.9,0-3.7,0.7-5.5,2.2
			c-1.7,1.5-3,3.4-3.7,5.8v22.4h-9.8v-38.4h8.9v7.1c1.4-2.5,3.4-4.4,5.8-5.8c2.5-1.3,5.3-2,8.5-2c3.2,0,5.7,0.8,7.5,2.3
			c1.8,1.6,2.9,3.5,3.4,5.8c1.6-2.6,3.5-4.7,5.9-6c2.4-1.4,5.1-2.1,8.2-2.1c2.3,0,4.3,0.4,5.8,1.3c1.5,0.9,2.7,2,3.5,3.4
			c0.8,1.4,1.4,3,1.7,4.8c0.3,1.8,0.5,3.6,0.5,5.5V431.1z"/>
		<path class="st1" d="M1664.9,431.8c-2.9,0-5.5-0.7-7.8-2c-2.3-1.3-4.1-3.1-5.4-5.4v6.7h-8.6v-53.5h9.8v21.8
			c1.4-2.3,3.2-4.2,5.4-5.5c2.2-1.3,4.8-1.9,7.8-1.9c2.5,0,4.8,0.5,6.8,1.6c2.1,1.1,3.8,2.5,5.3,4.3c1.5,1.8,2.6,3.9,3.4,6.4
			c0.8,2.4,1.2,5,1.2,7.7c0,2.8-0.5,5.4-1.4,7.8c-0.9,2.4-2.2,4.5-3.8,6.3c-1.6,1.8-3.5,3.2-5.7,4.2
			C1669.8,431.3,1667.5,431.8,1664.9,431.8z M1662.2,423.5c1.6,0,3-0.3,4.3-0.9c1.3-0.6,2.4-1.4,3.4-2.5c0.9-1,1.6-2.2,2.2-3.6
			c0.5-1.4,0.8-2.8,0.8-4.4c0-1.6-0.2-3.1-0.7-4.5c-0.5-1.4-1.2-2.7-2.1-3.7c-0.9-1.1-2-1.9-3.2-2.6c-1.2-0.6-2.6-1-4-1
			c-2.2,0-4.2,0.7-5.9,2.2c-1.7,1.4-3.1,3.2-4,5.3v9.2c0.3,1,0.8,1.9,1.5,2.6c0.7,0.8,1.4,1.5,2.2,2c0.8,0.6,1.7,1,2.7,1.3
			C1660.3,423.3,1661.3,423.5,1662.2,423.5z"/>
		<path class="st1" d="M1689.5,387.4v-9.7h9.8v9.7H1689.5z M1689.5,431.1v-38.4h9.8v38.4H1689.5z"/>
		<path class="st1" d="M1718.7,431.8c-1.9,0-3.6-0.3-5.2-0.9c-1.6-0.6-3-1.5-4.2-2.6c-1.2-1.1-2.1-2.4-2.7-3.8c-0.7-1.5-1-3.1-1-4.8
			c0-1.8,0.4-3.5,1.2-5c0.8-1.5,1.9-2.8,3.4-3.9c1.4-1.1,3.2-1.9,5.2-2.5c2-0.6,4.2-0.9,6.6-0.9c1.7,0,3.4,0.1,5,0.4
			c1.6,0.3,3.1,0.7,4.4,1.2v-2.2c0-2.5-0.7-4.5-2.2-5.9c-1.4-1.4-3.6-2.1-6.4-2.1c-2.1,0-4.1,0.4-6,1.1c-2,0.7-4,1.8-6,3.2l-3-6.2
			c4.9-3.3,10.3-4.9,16-4.9c5.5,0,9.8,1.4,12.9,4.1c3.1,2.7,4.6,6.6,4.6,11.8v11.9c0,1,0.2,1.8,0.5,2.2s1,0.7,1.8,0.7v8.4
			c-1.7,0.3-3.1,0.5-4.3,0.5c-1.9,0-3.3-0.4-4.3-1.2s-1.6-1.9-1.9-3.3l-0.2-2.1c-1.7,2.2-3.8,4-6.2,5.1
			C1724.1,431.3,1721.5,431.8,1718.7,431.8z M1721.5,424.7c1.7,0,3.2-0.3,4.7-0.9c1.5-0.6,2.6-1.4,3.5-2.3c1.1-0.8,1.6-1.8,1.6-2.8
			v-4.4c-1.2-0.4-2.4-0.8-3.8-1.1c-1.4-0.3-2.7-0.4-4-0.4c-2.5,0-4.6,0.6-6.2,1.7c-1.6,1.1-2.4,2.6-2.4,4.4c0,1.7,0.6,3,1.9,4.1
			C1718.1,424.1,1719.6,424.7,1721.5,424.7z"/>
	</g>
</g>
</svg>
